<mxfile host="app.diagrams.net" modified="2023-05-09T08:22:22.658Z" agent="Mozilla/5.0 (Windows NT 10.0; Win64; x64) AppleWebKit/537.36 (KHTML, like Gecko) Chrome/113.0.0.0 Safari/537.36" etag="yKOSKEp1gnadzZsLZ_yw" version="21.2.9" type="device">
  <diagram id="8CBrqVvIKr-gKunC30B_" name="Page-1">
    <mxGraphModel dx="1357" dy="905" grid="1" gridSize="10" guides="1" tooltips="1" connect="1" arrows="1" fold="1" page="1" pageScale="1" pageWidth="850" pageHeight="1100" math="0" shadow="0">
      <root>
        <mxCell id="0" />
        <mxCell id="1" parent="0" />
        <mxCell id="9qX3KQEV8e_0dFOt3C7K-21" value="" style="rhombus;whiteSpace=wrap;html=1;" parent="1" vertex="1">
          <mxGeometry x="706" y="542.5" width="100" height="65" as="geometry" />
        </mxCell>
        <mxCell id="9qX3KQEV8e_0dFOt3C7K-20" value="" style="rhombus;whiteSpace=wrap;html=1;" parent="1" vertex="1">
          <mxGeometry x="512.5" y="542.5" width="100" height="65" as="geometry" />
        </mxCell>
        <mxCell id="9qX3KQEV8e_0dFOt3C7K-13" value="" style="rounded=0;whiteSpace=wrap;html=1;" parent="1" vertex="1">
          <mxGeometry x="675" y="630" width="120" height="60" as="geometry" />
        </mxCell>
        <mxCell id="9qX3KQEV8e_0dFOt3C7K-12" value="" style="rounded=0;whiteSpace=wrap;html=1;" parent="1" vertex="1">
          <mxGeometry x="475" y="630" width="120" height="60" as="geometry" />
        </mxCell>
        <mxCell id="BdGzuhHDDtWegJgGCHpT-26" value="" style="rounded=0;whiteSpace=wrap;html=1;" parent="1" vertex="1">
          <mxGeometry x="645" y="280" width="95" height="55" as="geometry" />
        </mxCell>
        <mxCell id="BdGzuhHDDtWegJgGCHpT-25" value="" style="rounded=0;whiteSpace=wrap;html=1;" parent="1" vertex="1">
          <mxGeometry x="540" y="282.5" width="90" height="55" as="geometry" />
        </mxCell>
        <mxCell id="BdGzuhHDDtWegJgGCHpT-22" value="" style="rhombus;whiteSpace=wrap;html=1;" parent="1" vertex="1">
          <mxGeometry x="650" y="210" width="80" height="50" as="geometry" />
        </mxCell>
        <mxCell id="BdGzuhHDDtWegJgGCHpT-21" value="" style="rhombus;whiteSpace=wrap;html=1;" parent="1" vertex="1">
          <mxGeometry x="560" y="210" width="80" height="50" as="geometry" />
        </mxCell>
        <mxCell id="VeVonvC403iIWM1QfaWD-1" value="Student" style="rounded=0;whiteSpace=wrap;html=1;" parent="1" vertex="1">
          <mxGeometry x="110" y="100" width="80" height="50" as="geometry" />
        </mxCell>
        <mxCell id="BdGzuhHDDtWegJgGCHpT-1" value="&lt;u&gt;id&lt;/u&gt;" style="ellipse;whiteSpace=wrap;html=1;" parent="1" vertex="1">
          <mxGeometry x="20" y="30" width="60" height="30" as="geometry" />
        </mxCell>
        <mxCell id="BdGzuhHDDtWegJgGCHpT-2" value="name" style="ellipse;whiteSpace=wrap;html=1;" parent="1" vertex="1">
          <mxGeometry x="10" y="105" width="50" height="30" as="geometry" />
        </mxCell>
        <mxCell id="BdGzuhHDDtWegJgGCHpT-3" value="course" style="ellipse;whiteSpace=wrap;html=1;dashed=1;" parent="1" vertex="1">
          <mxGeometry x="10" y="180" width="50" height="30" as="geometry" />
        </mxCell>
        <mxCell id="BdGzuhHDDtWegJgGCHpT-4" value="Loan" style="rounded=0;whiteSpace=wrap;html=1;" parent="1" vertex="1">
          <mxGeometry x="350" y="105" width="80" height="40" as="geometry" />
        </mxCell>
        <mxCell id="BdGzuhHDDtWegJgGCHpT-5" value="have" style="rhombus;whiteSpace=wrap;html=1;" parent="1" vertex="1">
          <mxGeometry x="230" y="105" width="60" height="40" as="geometry" />
        </mxCell>
        <mxCell id="BdGzuhHDDtWegJgGCHpT-6" value="due_date" style="ellipse;whiteSpace=wrap;html=1;" parent="1" vertex="1">
          <mxGeometry x="260" y="40" width="70" height="40" as="geometry" />
        </mxCell>
        <mxCell id="BdGzuhHDDtWegJgGCHpT-7" value="loan_date" style="ellipse;whiteSpace=wrap;html=1;" parent="1" vertex="1">
          <mxGeometry x="170" y="40" width="80" height="40" as="geometry" />
        </mxCell>
        <mxCell id="BdGzuhHDDtWegJgGCHpT-8" value="loan_number" style="ellipse;whiteSpace=wrap;html=1;" parent="1" vertex="1">
          <mxGeometry x="350" y="10" width="80" height="40" as="geometry" />
        </mxCell>
        <mxCell id="BdGzuhHDDtWegJgGCHpT-9" value="extra_day" style="ellipse;whiteSpace=wrap;html=1;dashed=1;" parent="1" vertex="1">
          <mxGeometry x="440" y="10" width="80" height="40" as="geometry" />
        </mxCell>
        <mxCell id="BdGzuhHDDtWegJgGCHpT-10" value="return_date" style="ellipse;whiteSpace=wrap;html=1;" parent="1" vertex="1">
          <mxGeometry x="530" y="15" width="70" height="30" as="geometry" />
        </mxCell>
        <mxCell id="BdGzuhHDDtWegJgGCHpT-11" value="Item" style="rounded=0;whiteSpace=wrap;html=1;" parent="1" vertex="1">
          <mxGeometry x="600" y="105" width="90" height="40" as="geometry" />
        </mxCell>
        <mxCell id="BdGzuhHDDtWegJgGCHpT-12" value="include" style="rhombus;whiteSpace=wrap;html=1;" parent="1" vertex="1">
          <mxGeometry x="470" y="100" width="70" height="50" as="geometry" />
        </mxCell>
        <mxCell id="BdGzuhHDDtWegJgGCHpT-13" value="location" style="ellipse;whiteSpace=wrap;html=1;" parent="1" vertex="1">
          <mxGeometry x="740" y="30" width="80" height="30" as="geometry" />
        </mxCell>
        <mxCell id="BdGzuhHDDtWegJgGCHpT-14" value="&lt;u&gt;code&lt;/u&gt;" style="ellipse;whiteSpace=wrap;html=1;" parent="1" vertex="1">
          <mxGeometry x="745" y="80" width="70" height="30" as="geometry" />
        </mxCell>
        <mxCell id="BdGzuhHDDtWegJgGCHpT-15" value="description" style="ellipse;whiteSpace=wrap;html=1;" parent="1" vertex="1">
          <mxGeometry x="745" y="160" width="70" height="20" as="geometry" />
        </mxCell>
        <mxCell id="BdGzuhHDDtWegJgGCHpT-16" value="title" style="ellipse;whiteSpace=wrap;html=1;" parent="1" vertex="1">
          <mxGeometry x="755" y="125" width="50" height="20" as="geometry" />
        </mxCell>
        <mxCell id="BdGzuhHDDtWegJgGCHpT-17" value="is a" style="rhombus;whiteSpace=wrap;html=1;" parent="1" vertex="1">
          <mxGeometry x="660" y="220" width="60" height="30" as="geometry" />
        </mxCell>
        <mxCell id="BdGzuhHDDtWegJgGCHpT-18" value="is a" style="rhombus;whiteSpace=wrap;html=1;" parent="1" vertex="1">
          <mxGeometry x="570" y="220" width="60" height="30" as="geometry" />
        </mxCell>
        <mxCell id="BdGzuhHDDtWegJgGCHpT-19" value="Documentary" style="rounded=0;whiteSpace=wrap;html=1;" parent="1" vertex="1">
          <mxGeometry x="650" y="287.5" width="80" height="40" as="geometry" />
        </mxCell>
        <mxCell id="BdGzuhHDDtWegJgGCHpT-20" value="Book" style="rounded=0;whiteSpace=wrap;html=1;" parent="1" vertex="1">
          <mxGeometry x="550" y="290" width="70" height="40" as="geometry" />
        </mxCell>
        <mxCell id="BdGzuhHDDtWegJgGCHpT-27" value="" style="endArrow=none;html=1;rounded=0;entryX=1;entryY=1;entryDx=0;entryDy=0;exitX=0;exitY=0.5;exitDx=0;exitDy=0;" parent="1" source="VeVonvC403iIWM1QfaWD-1" target="BdGzuhHDDtWegJgGCHpT-1" edge="1">
          <mxGeometry width="50" height="50" relative="1" as="geometry">
            <mxPoint x="400" y="330" as="sourcePoint" />
            <mxPoint x="450" y="280" as="targetPoint" />
          </mxGeometry>
        </mxCell>
        <mxCell id="BdGzuhHDDtWegJgGCHpT-28" value="" style="endArrow=none;html=1;rounded=0;entryX=1;entryY=0;entryDx=0;entryDy=0;exitX=0;exitY=0.5;exitDx=0;exitDy=0;" parent="1" source="VeVonvC403iIWM1QfaWD-1" target="BdGzuhHDDtWegJgGCHpT-3" edge="1">
          <mxGeometry width="50" height="50" relative="1" as="geometry">
            <mxPoint x="400" y="330" as="sourcePoint" />
            <mxPoint x="450" y="280" as="targetPoint" />
          </mxGeometry>
        </mxCell>
        <mxCell id="BdGzuhHDDtWegJgGCHpT-29" value="" style="endArrow=none;html=1;rounded=0;entryX=1;entryY=0.5;entryDx=0;entryDy=0;exitX=0;exitY=0.5;exitDx=0;exitDy=0;" parent="1" source="VeVonvC403iIWM1QfaWD-1" target="BdGzuhHDDtWegJgGCHpT-2" edge="1">
          <mxGeometry width="50" height="50" relative="1" as="geometry">
            <mxPoint x="400" y="330" as="sourcePoint" />
            <mxPoint x="450" y="280" as="targetPoint" />
          </mxGeometry>
        </mxCell>
        <mxCell id="BdGzuhHDDtWegJgGCHpT-30" value="" style="endArrow=none;html=1;rounded=0;entryX=0.5;entryY=1;entryDx=0;entryDy=0;exitX=0.5;exitY=0;exitDx=0;exitDy=0;" parent="1" source="BdGzuhHDDtWegJgGCHpT-5" target="BdGzuhHDDtWegJgGCHpT-6" edge="1">
          <mxGeometry width="50" height="50" relative="1" as="geometry">
            <mxPoint x="400" y="330" as="sourcePoint" />
            <mxPoint x="450" y="280" as="targetPoint" />
          </mxGeometry>
        </mxCell>
        <mxCell id="BdGzuhHDDtWegJgGCHpT-31" value="" style="endArrow=none;html=1;rounded=0;entryX=0.5;entryY=1;entryDx=0;entryDy=0;exitX=0.5;exitY=0;exitDx=0;exitDy=0;" parent="1" source="BdGzuhHDDtWegJgGCHpT-5" target="BdGzuhHDDtWegJgGCHpT-7" edge="1">
          <mxGeometry width="50" height="50" relative="1" as="geometry">
            <mxPoint x="400" y="330" as="sourcePoint" />
            <mxPoint x="450" y="280" as="targetPoint" />
          </mxGeometry>
        </mxCell>
        <mxCell id="BdGzuhHDDtWegJgGCHpT-32" value="" style="endArrow=none;html=1;rounded=0;entryX=0;entryY=1;entryDx=0;entryDy=0;exitX=0.5;exitY=0;exitDx=0;exitDy=0;" parent="1" source="BdGzuhHDDtWegJgGCHpT-4" target="BdGzuhHDDtWegJgGCHpT-10" edge="1">
          <mxGeometry width="50" height="50" relative="1" as="geometry">
            <mxPoint x="400" y="330" as="sourcePoint" />
            <mxPoint x="450" y="280" as="targetPoint" />
          </mxGeometry>
        </mxCell>
        <mxCell id="BdGzuhHDDtWegJgGCHpT-33" value="" style="endArrow=none;html=1;rounded=0;entryX=0;entryY=1;entryDx=0;entryDy=0;exitX=0.5;exitY=0;exitDx=0;exitDy=0;" parent="1" source="BdGzuhHDDtWegJgGCHpT-4" target="BdGzuhHDDtWegJgGCHpT-9" edge="1">
          <mxGeometry width="50" height="50" relative="1" as="geometry">
            <mxPoint x="400" y="330" as="sourcePoint" />
            <mxPoint x="450" y="280" as="targetPoint" />
          </mxGeometry>
        </mxCell>
        <mxCell id="BdGzuhHDDtWegJgGCHpT-34" value="" style="endArrow=none;html=1;rounded=0;entryX=0.5;entryY=1;entryDx=0;entryDy=0;exitX=0.5;exitY=0;exitDx=0;exitDy=0;" parent="1" source="BdGzuhHDDtWegJgGCHpT-4" target="BdGzuhHDDtWegJgGCHpT-8" edge="1">
          <mxGeometry width="50" height="50" relative="1" as="geometry">
            <mxPoint x="380" y="90" as="sourcePoint" />
            <mxPoint x="450" y="280" as="targetPoint" />
          </mxGeometry>
        </mxCell>
        <mxCell id="BdGzuhHDDtWegJgGCHpT-35" value="" style="endArrow=none;html=1;rounded=0;exitX=1;exitY=0.5;exitDx=0;exitDy=0;entryX=0;entryY=0.5;entryDx=0;entryDy=0;" parent="1" source="VeVonvC403iIWM1QfaWD-1" target="BdGzuhHDDtWegJgGCHpT-5" edge="1">
          <mxGeometry width="50" height="50" relative="1" as="geometry">
            <mxPoint x="400" y="330" as="sourcePoint" />
            <mxPoint x="450" y="280" as="targetPoint" />
          </mxGeometry>
        </mxCell>
        <mxCell id="BdGzuhHDDtWegJgGCHpT-36" value="" style="endArrow=none;html=1;rounded=0;entryX=0;entryY=0.5;entryDx=0;entryDy=0;exitX=1;exitY=0.75;exitDx=0;exitDy=0;" parent="1" source="BdGzuhHDDtWegJgGCHpT-11" target="BdGzuhHDDtWegJgGCHpT-15" edge="1">
          <mxGeometry width="50" height="50" relative="1" as="geometry">
            <mxPoint x="400" y="330" as="sourcePoint" />
            <mxPoint x="450" y="280" as="targetPoint" />
          </mxGeometry>
        </mxCell>
        <mxCell id="BdGzuhHDDtWegJgGCHpT-37" value="" style="endArrow=none;html=1;rounded=0;entryX=0;entryY=0.5;entryDx=0;entryDy=0;exitX=1;exitY=0.5;exitDx=0;exitDy=0;" parent="1" source="BdGzuhHDDtWegJgGCHpT-11" target="BdGzuhHDDtWegJgGCHpT-16" edge="1">
          <mxGeometry width="50" height="50" relative="1" as="geometry">
            <mxPoint x="400" y="330" as="sourcePoint" />
            <mxPoint x="450" y="280" as="targetPoint" />
          </mxGeometry>
        </mxCell>
        <mxCell id="BdGzuhHDDtWegJgGCHpT-38" value="" style="endArrow=none;html=1;rounded=0;entryX=0;entryY=0.5;entryDx=0;entryDy=0;exitX=1;exitY=0.25;exitDx=0;exitDy=0;" parent="1" source="BdGzuhHDDtWegJgGCHpT-11" target="BdGzuhHDDtWegJgGCHpT-14" edge="1">
          <mxGeometry width="50" height="50" relative="1" as="geometry">
            <mxPoint x="400" y="330" as="sourcePoint" />
            <mxPoint x="450" y="280" as="targetPoint" />
          </mxGeometry>
        </mxCell>
        <mxCell id="BdGzuhHDDtWegJgGCHpT-39" value="" style="endArrow=none;html=1;rounded=0;entryX=0;entryY=0.5;entryDx=0;entryDy=0;exitX=1;exitY=0;exitDx=0;exitDy=0;" parent="1" source="BdGzuhHDDtWegJgGCHpT-11" target="BdGzuhHDDtWegJgGCHpT-13" edge="1">
          <mxGeometry width="50" height="50" relative="1" as="geometry">
            <mxPoint x="400" y="330" as="sourcePoint" />
            <mxPoint x="450" y="280" as="targetPoint" />
          </mxGeometry>
        </mxCell>
        <mxCell id="BdGzuhHDDtWegJgGCHpT-40" value="" style="endArrow=none;html=1;rounded=0;exitX=1;exitY=0.5;exitDx=0;exitDy=0;entryX=0;entryY=0.5;entryDx=0;entryDy=0;shape=link;" parent="1" source="BdGzuhHDDtWegJgGCHpT-5" target="BdGzuhHDDtWegJgGCHpT-4" edge="1">
          <mxGeometry width="50" height="50" relative="1" as="geometry">
            <mxPoint x="400" y="330" as="sourcePoint" />
            <mxPoint x="450" y="280" as="targetPoint" />
          </mxGeometry>
        </mxCell>
        <mxCell id="BdGzuhHDDtWegJgGCHpT-41" value="" style="endArrow=none;html=1;rounded=0;entryX=1;entryY=0.5;entryDx=0;entryDy=0;exitX=0;exitY=0.5;exitDx=0;exitDy=0;shape=link;" parent="1" source="BdGzuhHDDtWegJgGCHpT-11" target="BdGzuhHDDtWegJgGCHpT-12" edge="1">
          <mxGeometry width="50" height="50" relative="1" as="geometry">
            <mxPoint x="400" y="330" as="sourcePoint" />
            <mxPoint x="450" y="280" as="targetPoint" />
          </mxGeometry>
        </mxCell>
        <mxCell id="BdGzuhHDDtWegJgGCHpT-42" value="" style="endArrow=none;html=1;rounded=0;entryX=1;entryY=0.5;entryDx=0;entryDy=0;exitX=0;exitY=0.5;exitDx=0;exitDy=0;" parent="1" source="BdGzuhHDDtWegJgGCHpT-12" target="BdGzuhHDDtWegJgGCHpT-4" edge="1">
          <mxGeometry width="50" height="50" relative="1" as="geometry">
            <mxPoint x="400" y="330" as="sourcePoint" />
            <mxPoint x="450" y="280" as="targetPoint" />
          </mxGeometry>
        </mxCell>
        <mxCell id="BdGzuhHDDtWegJgGCHpT-43" value="" style="endArrow=none;html=1;rounded=0;entryX=0.5;entryY=1;entryDx=0;entryDy=0;exitX=0.5;exitY=0;exitDx=0;exitDy=0;" parent="1" source="BdGzuhHDDtWegJgGCHpT-22" target="BdGzuhHDDtWegJgGCHpT-11" edge="1">
          <mxGeometry width="50" height="50" relative="1" as="geometry">
            <mxPoint x="690" y="190" as="sourcePoint" />
            <mxPoint x="450" y="280" as="targetPoint" />
          </mxGeometry>
        </mxCell>
        <mxCell id="BdGzuhHDDtWegJgGCHpT-44" value="" style="endArrow=none;html=1;rounded=0;entryX=0.5;entryY=1;entryDx=0;entryDy=0;exitX=0.5;exitY=0;exitDx=0;exitDy=0;" parent="1" source="BdGzuhHDDtWegJgGCHpT-21" target="BdGzuhHDDtWegJgGCHpT-11" edge="1">
          <mxGeometry width="50" height="50" relative="1" as="geometry">
            <mxPoint x="400" y="330" as="sourcePoint" />
            <mxPoint x="450" y="280" as="targetPoint" />
          </mxGeometry>
        </mxCell>
        <mxCell id="BdGzuhHDDtWegJgGCHpT-45" value="" style="endArrow=none;html=1;rounded=0;entryX=0.5;entryY=1;entryDx=0;entryDy=0;shape=link;exitX=0.5;exitY=0;exitDx=0;exitDy=0;" parent="1" source="BdGzuhHDDtWegJgGCHpT-25" target="BdGzuhHDDtWegJgGCHpT-21" edge="1">
          <mxGeometry width="50" height="50" relative="1" as="geometry">
            <mxPoint x="590" y="280" as="sourcePoint" />
            <mxPoint x="450" y="280" as="targetPoint" />
          </mxGeometry>
        </mxCell>
        <mxCell id="BdGzuhHDDtWegJgGCHpT-46" value="" style="endArrow=none;html=1;rounded=0;entryX=0.5;entryY=1;entryDx=0;entryDy=0;shape=link;exitX=0.467;exitY=-0.01;exitDx=0;exitDy=0;exitPerimeter=0;" parent="1" source="BdGzuhHDDtWegJgGCHpT-26" target="BdGzuhHDDtWegJgGCHpT-22" edge="1">
          <mxGeometry width="50" height="50" relative="1" as="geometry">
            <mxPoint x="730" y="270" as="sourcePoint" />
            <mxPoint x="450" y="280" as="targetPoint" />
          </mxGeometry>
        </mxCell>
        <mxCell id="BdGzuhHDDtWegJgGCHpT-47" value="publication_date" style="ellipse;whiteSpace=wrap;html=1;" parent="1" vertex="1">
          <mxGeometry x="360" y="310" width="110" height="30" as="geometry" />
        </mxCell>
        <mxCell id="BdGzuhHDDtWegJgGCHpT-48" value="publisher" style="ellipse;whiteSpace=wrap;html=1;" parent="1" vertex="1">
          <mxGeometry x="385" y="370" width="60" height="30" as="geometry" />
        </mxCell>
        <mxCell id="BdGzuhHDDtWegJgGCHpT-49" value="page" style="ellipse;whiteSpace=wrap;html=1;" parent="1" vertex="1">
          <mxGeometry x="380" y="250" width="70" height="30" as="geometry" />
        </mxCell>
        <mxCell id="BdGzuhHDDtWegJgGCHpT-50" value="" style="endArrow=none;html=1;rounded=0;entryX=0;entryY=0.5;entryDx=0;entryDy=0;exitX=1;exitY=0.5;exitDx=0;exitDy=0;" parent="1" source="BdGzuhHDDtWegJgGCHpT-47" target="BdGzuhHDDtWegJgGCHpT-25" edge="1">
          <mxGeometry width="50" height="50" relative="1" as="geometry">
            <mxPoint x="400" y="330" as="sourcePoint" />
            <mxPoint x="450" y="280" as="targetPoint" />
          </mxGeometry>
        </mxCell>
        <mxCell id="BdGzuhHDDtWegJgGCHpT-51" value="" style="endArrow=none;html=1;rounded=0;entryX=0;entryY=0.5;entryDx=0;entryDy=0;exitX=1;exitY=0.5;exitDx=0;exitDy=0;" parent="1" source="BdGzuhHDDtWegJgGCHpT-48" target="BdGzuhHDDtWegJgGCHpT-25" edge="1">
          <mxGeometry width="50" height="50" relative="1" as="geometry">
            <mxPoint x="400" y="330" as="sourcePoint" />
            <mxPoint x="450" y="280" as="targetPoint" />
          </mxGeometry>
        </mxCell>
        <mxCell id="BdGzuhHDDtWegJgGCHpT-52" value="" style="endArrow=none;html=1;rounded=0;entryX=0;entryY=0.5;entryDx=0;entryDy=0;exitX=1;exitY=0.5;exitDx=0;exitDy=0;" parent="1" source="BdGzuhHDDtWegJgGCHpT-49" target="BdGzuhHDDtWegJgGCHpT-25" edge="1">
          <mxGeometry width="50" height="50" relative="1" as="geometry">
            <mxPoint x="400" y="330" as="sourcePoint" />
            <mxPoint x="450" y="280" as="targetPoint" />
          </mxGeometry>
        </mxCell>
        <mxCell id="BdGzuhHDDtWegJgGCHpT-53" value="release_date" style="ellipse;whiteSpace=wrap;html=1;" parent="1" vertex="1">
          <mxGeometry x="760" y="320" width="80" height="30" as="geometry" />
        </mxCell>
        <mxCell id="BdGzuhHDDtWegJgGCHpT-54" value="length" style="ellipse;whiteSpace=wrap;html=1;" parent="1" vertex="1">
          <mxGeometry x="780" y="250" width="60" height="30" as="geometry" />
        </mxCell>
        <mxCell id="BdGzuhHDDtWegJgGCHpT-55" value="" style="endArrow=none;html=1;rounded=0;entryX=0;entryY=0.5;entryDx=0;entryDy=0;exitX=1;exitY=0.5;exitDx=0;exitDy=0;" parent="1" source="BdGzuhHDDtWegJgGCHpT-26" target="BdGzuhHDDtWegJgGCHpT-53" edge="1">
          <mxGeometry width="50" height="50" relative="1" as="geometry">
            <mxPoint x="470" y="430" as="sourcePoint" />
            <mxPoint x="520" y="380" as="targetPoint" />
          </mxGeometry>
        </mxCell>
        <mxCell id="BdGzuhHDDtWegJgGCHpT-56" value="" style="endArrow=none;html=1;rounded=0;entryX=0;entryY=0.5;entryDx=0;entryDy=0;exitX=1;exitY=0.5;exitDx=0;exitDy=0;" parent="1" source="BdGzuhHDDtWegJgGCHpT-26" target="BdGzuhHDDtWegJgGCHpT-54" edge="1">
          <mxGeometry width="50" height="50" relative="1" as="geometry">
            <mxPoint x="770" y="290" as="sourcePoint" />
            <mxPoint x="520" y="380" as="targetPoint" />
          </mxGeometry>
        </mxCell>
        <mxCell id="9qX3KQEV8e_0dFOt3C7K-1" value="Creator" style="rounded=0;whiteSpace=wrap;html=1;" parent="1" vertex="1">
          <mxGeometry x="597.5" y="470" width="95" height="40" as="geometry" />
        </mxCell>
        <mxCell id="9qX3KQEV8e_0dFOt3C7K-2" value="name" style="ellipse;whiteSpace=wrap;html=1;" parent="1" vertex="1">
          <mxGeometry x="440" y="475" width="70" height="30" as="geometry" />
        </mxCell>
        <mxCell id="9qX3KQEV8e_0dFOt3C7K-3" value="nationality" style="ellipse;whiteSpace=wrap;html=1;" parent="1" vertex="1">
          <mxGeometry x="762.5" y="475" width="85" height="30" as="geometry" />
        </mxCell>
        <mxCell id="9qX3KQEV8e_0dFOt3C7K-4" value="" style="endArrow=none;html=1;rounded=0;entryX=1;entryY=0.5;entryDx=0;entryDy=0;exitX=0;exitY=0.5;exitDx=0;exitDy=0;" parent="1" source="9qX3KQEV8e_0dFOt3C7K-1" target="9qX3KQEV8e_0dFOt3C7K-2" edge="1">
          <mxGeometry width="50" height="50" relative="1" as="geometry">
            <mxPoint x="420" y="510" as="sourcePoint" />
            <mxPoint x="470" y="460" as="targetPoint" />
          </mxGeometry>
        </mxCell>
        <mxCell id="9qX3KQEV8e_0dFOt3C7K-5" value="" style="endArrow=none;html=1;rounded=0;exitX=0;exitY=0.5;exitDx=0;exitDy=0;entryX=1;entryY=0.5;entryDx=0;entryDy=0;" parent="1" source="9qX3KQEV8e_0dFOt3C7K-3" target="9qX3KQEV8e_0dFOt3C7K-1" edge="1">
          <mxGeometry width="50" height="50" relative="1" as="geometry">
            <mxPoint x="420" y="510" as="sourcePoint" />
            <mxPoint x="470" y="460" as="targetPoint" />
          </mxGeometry>
        </mxCell>
        <mxCell id="9qX3KQEV8e_0dFOt3C7K-6" value="" style="endArrow=none;html=1;rounded=0;entryX=0.5;entryY=1;entryDx=0;entryDy=0;exitX=0.5;exitY=0;exitDx=0;exitDy=0;" parent="1" source="9qX3KQEV8e_0dFOt3C7K-8" target="BdGzuhHDDtWegJgGCHpT-25" edge="1">
          <mxGeometry width="50" height="50" relative="1" as="geometry">
            <mxPoint x="640" y="370" as="sourcePoint" />
            <mxPoint x="470" y="510" as="targetPoint" />
          </mxGeometry>
        </mxCell>
        <mxCell id="9qX3KQEV8e_0dFOt3C7K-7" value="" style="endArrow=none;html=1;rounded=0;entryX=0.5;entryY=1;entryDx=0;entryDy=0;exitX=0.5;exitY=0;exitDx=0;exitDy=0;" parent="1" source="9qX3KQEV8e_0dFOt3C7K-8" target="BdGzuhHDDtWegJgGCHpT-26" edge="1">
          <mxGeometry width="50" height="50" relative="1" as="geometry">
            <mxPoint x="650" y="370" as="sourcePoint" />
            <mxPoint x="470" y="510" as="targetPoint" />
          </mxGeometry>
        </mxCell>
        <mxCell id="9qX3KQEV8e_0dFOt3C7K-8" value="belongs to" style="rhombus;whiteSpace=wrap;html=1;" parent="1" vertex="1">
          <mxGeometry x="605" y="390" width="80" height="40" as="geometry" />
        </mxCell>
        <mxCell id="9qX3KQEV8e_0dFOt3C7K-9" value="" style="endArrow=none;html=1;rounded=0;entryX=0.5;entryY=1;entryDx=0;entryDy=0;exitX=0.5;exitY=0;exitDx=0;exitDy=0;" parent="1" source="9qX3KQEV8e_0dFOt3C7K-1" target="9qX3KQEV8e_0dFOt3C7K-8" edge="1">
          <mxGeometry width="50" height="50" relative="1" as="geometry">
            <mxPoint x="420" y="390" as="sourcePoint" />
            <mxPoint x="470" y="340" as="targetPoint" />
          </mxGeometry>
        </mxCell>
        <mxCell id="9qX3KQEV8e_0dFOt3C7K-10" value="Author" style="rounded=0;whiteSpace=wrap;html=1;" parent="1" vertex="1">
          <mxGeometry x="500" y="640" width="70" height="40" as="geometry" />
        </mxCell>
        <mxCell id="9qX3KQEV8e_0dFOt3C7K-11" value="Director" style="rounded=0;whiteSpace=wrap;html=1;" parent="1" vertex="1">
          <mxGeometry x="700" y="640" width="70" height="40" as="geometry" />
        </mxCell>
        <mxCell id="9qX3KQEV8e_0dFOt3C7K-14" value="is a" style="rhombus;whiteSpace=wrap;html=1;" parent="1" vertex="1">
          <mxGeometry x="525" y="560" width="75" height="30" as="geometry" />
        </mxCell>
        <mxCell id="9qX3KQEV8e_0dFOt3C7K-15" value="is a" style="rhombus;whiteSpace=wrap;html=1;" parent="1" vertex="1">
          <mxGeometry x="720" y="560" width="70" height="30" as="geometry" />
        </mxCell>
        <mxCell id="9qX3KQEV8e_0dFOt3C7K-16" value="" style="endArrow=none;html=1;rounded=0;entryX=0.5;entryY=1;entryDx=0;entryDy=0;exitX=0.5;exitY=0;exitDx=0;exitDy=0;" parent="1" source="9qX3KQEV8e_0dFOt3C7K-21" target="9qX3KQEV8e_0dFOt3C7K-1" edge="1">
          <mxGeometry width="50" height="50" relative="1" as="geometry">
            <mxPoint x="755" y="530" as="sourcePoint" />
            <mxPoint x="500" y="410" as="targetPoint" />
          </mxGeometry>
        </mxCell>
        <mxCell id="9qX3KQEV8e_0dFOt3C7K-17" value="" style="endArrow=none;html=1;rounded=0;entryX=0.5;entryY=1;entryDx=0;entryDy=0;exitX=0.5;exitY=0;exitDx=0;exitDy=0;" parent="1" source="9qX3KQEV8e_0dFOt3C7K-20" target="9qX3KQEV8e_0dFOt3C7K-1" edge="1">
          <mxGeometry width="50" height="50" relative="1" as="geometry">
            <mxPoint x="570" y="520" as="sourcePoint" />
            <mxPoint x="500" y="410" as="targetPoint" />
          </mxGeometry>
        </mxCell>
        <mxCell id="9qX3KQEV8e_0dFOt3C7K-18" value="" style="endArrow=none;html=1;rounded=0;entryX=0.5;entryY=1;entryDx=0;entryDy=0;exitX=0.5;exitY=0;exitDx=0;exitDy=0;shape=link;" parent="1" source="9qX3KQEV8e_0dFOt3C7K-13" target="9qX3KQEV8e_0dFOt3C7K-21" edge="1">
          <mxGeometry width="50" height="50" relative="1" as="geometry">
            <mxPoint x="450" y="460" as="sourcePoint" />
            <mxPoint x="500" y="410" as="targetPoint" />
          </mxGeometry>
        </mxCell>
        <mxCell id="9qX3KQEV8e_0dFOt3C7K-19" value="" style="endArrow=none;html=1;rounded=0;entryX=0.5;entryY=1;entryDx=0;entryDy=0;exitX=0.5;exitY=0;exitDx=0;exitDy=0;shape=link;" parent="1" source="9qX3KQEV8e_0dFOt3C7K-12" target="9qX3KQEV8e_0dFOt3C7K-20" edge="1">
          <mxGeometry width="50" height="50" relative="1" as="geometry">
            <mxPoint x="450" y="460" as="sourcePoint" />
            <mxPoint x="390" y="470" as="targetPoint" />
          </mxGeometry>
        </mxCell>
        <mxCell id="9qX3KQEV8e_0dFOt3C7K-22" value="style" style="ellipse;whiteSpace=wrap;html=1;" parent="1" vertex="1">
          <mxGeometry x="700" y="720" width="70" height="30" as="geometry" />
        </mxCell>
        <mxCell id="9qX3KQEV8e_0dFOt3C7K-23" value="subject" style="ellipse;whiteSpace=wrap;html=1;" parent="1" vertex="1">
          <mxGeometry x="500" y="720" width="70" height="30" as="geometry" />
        </mxCell>
        <mxCell id="9qX3KQEV8e_0dFOt3C7K-24" value="" style="endArrow=none;html=1;rounded=0;entryX=0.5;entryY=1;entryDx=0;entryDy=0;exitX=0.5;exitY=0;exitDx=0;exitDy=0;" parent="1" source="9qX3KQEV8e_0dFOt3C7K-22" target="9qX3KQEV8e_0dFOt3C7K-13" edge="1">
          <mxGeometry width="50" height="50" relative="1" as="geometry">
            <mxPoint x="450" y="730" as="sourcePoint" />
            <mxPoint x="500" y="680" as="targetPoint" />
          </mxGeometry>
        </mxCell>
        <mxCell id="9qX3KQEV8e_0dFOt3C7K-25" value="" style="endArrow=none;html=1;rounded=0;exitX=0.5;exitY=0;exitDx=0;exitDy=0;entryX=0.5;entryY=1;entryDx=0;entryDy=0;" parent="1" source="9qX3KQEV8e_0dFOt3C7K-23" target="9qX3KQEV8e_0dFOt3C7K-12" edge="1">
          <mxGeometry width="50" height="50" relative="1" as="geometry">
            <mxPoint x="450" y="730" as="sourcePoint" />
            <mxPoint x="510" y="710" as="targetPoint" />
          </mxGeometry>
        </mxCell>
      </root>
    </mxGraphModel>
  </diagram>
</mxfile>
